<?xml version="1.0" encoding="UTF-8"?>
<svg id="Layer_2" data-name="Layer 2" xmlns="http://www.w3.org/2000/svg" xmlns:xlink="http://www.w3.org/1999/xlink" viewBox="0 0 307.15 264.26">
  <defs>
    <style>
      .cls-1 {
        fill: none;
      }

      .cls-2 {
        fill: #e9d0cb;
        opacity: .43;
      }

      .cls-3 {
        fill: #af80a1;
        opacity: .27;
      }

      .cls-4 {
        clip-path: url(#clippath);
      }

      .cls-5 {
        fill: #bc429c;
        opacity: .12;
      }

      .cls-6 {
        opacity: .62;
      }
    </style>
    <clipPath id="clippath">
      <path class="cls-1" d="M242.58,91.6c.11,38.26-24.15,71.12-53.35,84.02-17.2,7.6-33,6.91-37.29,6.62-23.4-1.56-38.99-13.4-51.27-22.72-12.14-9.22-31.97-24.27-37.81-50.55-.77-3.47-1.85-9.63-1.56-17.37,1.55-40.82,39.21-67.04,47.42-72.76,10.5-7.31,23.63-16.45,43.22-17.88,21.37-1.56,37.38,7.02,43.22,10.25,25.71,14.22,47.32,44.42,47.42,80.39Z"/>
    </clipPath>
  </defs>
  <g id="Layer_1" data-name="Layer 1">
    <g>
      <g class="cls-6">
        <g class="cls-4">
          <path class="cls-2" d="M154.5.94C104.44.94,63.86,41.52,63.86,91.58s40.58,90.64,90.64,90.64,90.64-40.58,90.64-90.64S204.56.94,154.5.94ZM65.29-95.95C15.23-95.95-25.35-55.37-25.35-5.31S15.23,85.33,65.29,85.33,155.93,44.75,155.93-5.31s-40.58-90.64-90.64-90.64ZM143.28,112.75c-.31,1.11-.81,2.01-1.43,2.71-.12.26-.24.52-.39.77-2.17,3.46-6.79,4.71-10.67,4.61-.6-.01-1.2-.09-1.78-.22-.49.1-1,.16-1.5.18-1.21,0-2.34-.31-3.38-.92-.45-.35-.9-.7-1.36-1.05-.83-.84-1.41-1.82-1.72-2.96-.08-.59-.16-1.19-.24-1.78,0-.04,0-.07,0-.11-2.67-3.01-4.18-6.86-1.88-10.78,2.32-3.96,6.79-4.78,10.98-5.2,4.38-.43,8.12.74,10.79,4.39,2.1,2.86,3.57,6.81,2.59,10.34ZM142.79,83.36c-5.84,5.37-15.23,5.1-20.34-.95-.69-.82-1.18-1.74-1.51-2.7-2.27-1.5-3.84-3.94-3.9-6.93-.07-4.03,2.33-7.4,5.78-9.29,5.61-3.07,12.72-5.15,17.91.63,4.79,5.34,8.33,13.46,2.05,19.24ZM167.73,68.5s0-.02.01-.02c.2-.37.42-.73.67-1.07.15-.22.31-.43.48-.64.06-.07.11-.14.17-.21,1.94-2.33,4.78-3.91,7.81-4.4,3-.48,6.03-.14,8.42,1.84,1.9,1.09,3.45,2.8,4.4,5.03,2.02,4.8,1.22,10.62-3.39,13.62-2.76,1.79-6.95,2.87-10.22,2.72-4.77-.22-8.59-3.59-9.56-8.23-.58-2.77-.18-6.02,1.22-8.63ZM189.73,112.97c-2.24,3.23-4.54,5.78-8.25,7.23-3.42,1.34-7.28,1.76-10.51-.32-2.88-1.86-4.09-4.65-4.09-7.53-.11-.52-.18-1.06-.21-1.61-.15-1.11-.11-2.26.08-3.42.05-1.9.14-3.77.87-5.59,1.52-3.78,4.9-5.62,8.86-5.76,1.45-.05,2.81.45,3.92,1.29.61.04,1.21.12,1.76.27.74.2,1.41.51,2.01.89,1.82.49,3.53,1.35,5,2.74,3.45,3.28,3.1,8.15.55,11.82Z"/>
          <path class="cls-3" d="M222.83,69.7c-.91-31.62-26.82-56.98-58.66-56.98-14.11,0-27.05,4.98-37.17,13.27-41.78,8.08-73.34,44.83-73.34,88.97,0,50.06,40.58,90.64,90.64,90.64s90.64-40.58,90.64-90.64c0-16.49-4.43-31.94-12.12-45.26ZM143.28,112.75c-.31,1.11-.81,2.01-1.43,2.71-.12.26-.24.52-.39.77-2.17,3.46-6.79,4.71-10.67,4.61-.6-.01-1.2-.09-1.78-.22-.49.1-1,.16-1.5.18-1.21,0-2.34-.31-3.38-.92-.45-.35-.9-.7-1.36-1.05-.83-.84-1.41-1.82-1.72-2.96-.08-.59-.16-1.19-.24-1.78,0-.04,0-.07,0-.11-2.67-3.01-4.18-6.86-1.88-10.78,2.32-3.96,6.79-4.78,10.98-5.2,4.38-.43,8.12.74,10.79,4.39,2.1,2.86,3.57,6.81,2.59,10.34ZM142.79,83.36c-5.84,5.37-15.23,5.1-20.34-.95-.69-.82-1.18-1.74-1.51-2.7-2.27-1.5-3.84-3.94-3.9-6.93-.07-4.03,2.33-7.4,5.78-9.29,5.61-3.07,12.72-5.15,17.91.63,4.79,5.34,8.33,13.46,2.05,19.24ZM167.73,68.5s0-.02.01-.02c.2-.37.42-.73.67-1.07.15-.22.31-.43.48-.64.06-.07.11-.14.17-.21,1.94-2.33,4.78-3.91,7.81-4.4,3-.48,6.03-.14,8.42,1.84,1.9,1.09,3.45,2.8,4.4,5.03,2.02,4.8,1.22,10.62-3.39,13.62-2.76,1.79-6.95,2.87-10.22,2.72-4.77-.22-8.59-3.59-9.56-8.23-.58-2.77-.18-6.02,1.22-8.63ZM189.73,112.97c-2.24,3.23-4.54,5.78-8.25,7.23-3.42,1.34-7.28,1.76-10.51-.32-2.88-1.86-4.09-4.65-4.09-7.53-.11-.52-.18-1.06-.21-1.61-.15-1.11-.11-2.26.08-3.42.05-1.9.14-3.77.87-5.59,1.52-3.78,4.9-5.62,8.86-5.76,1.45-.05,2.81.45,3.92,1.29.61.04,1.21.12,1.76.27.74.2,1.41.51,2.01.89,1.82.49,3.53,1.35,5,2.74,3.45,3.28,3.1,8.15.55,11.82Z"/>
          <path class="cls-5" d="M193.41-11.84c-13.1-5.23-26.97-5.4-39.44-1.45C112.17-21.26,69.24,1.19,52.89,42.19c-18.55,46.5,4.11,99.23,50.61,117.77,46.5,18.55,99.23-4.11,117.77-50.61,6.11-15.32,7.72-31.3,5.51-46.53,10.87-29.71-3.79-62.86-33.37-74.66ZM143.28,112.75c-.31,1.11-.81,2.01-1.43,2.71-.12.26-.24.52-.39.77-2.17,3.46-6.79,4.71-10.67,4.61-.6-.01-1.2-.09-1.78-.22-.49.1-1,.16-1.5.18-1.21,0-2.34-.31-3.38-.92-.45-.35-.9-.7-1.36-1.05-.83-.84-1.41-1.82-1.72-2.96-.08-.59-.16-1.19-.24-1.78,0-.04,0-.07,0-.11-2.67-3.01-4.18-6.86-1.88-10.78,2.32-3.96,6.79-4.78,10.98-5.2,4.38-.43,8.12.74,10.79,4.39,2.1,2.86,3.57,6.81,2.59,10.34ZM142.79,83.36c-5.84,5.37-15.23,5.1-20.34-.95-.69-.82-1.18-1.74-1.51-2.7-2.27-1.5-3.84-3.94-3.9-6.93-.07-4.03,2.33-7.4,5.78-9.29,5.61-3.07,12.72-5.15,17.91.63,4.79,5.34,8.33,13.46,2.05,19.24ZM167.73,68.5s0-.02.01-.02c.2-.37.42-.73.67-1.07.15-.22.31-.43.48-.64.06-.07.11-.14.17-.21,1.94-2.33,4.78-3.91,7.81-4.4,3-.48,6.03-.14,8.42,1.84,1.9,1.09,3.45,2.8,4.4,5.03,2.02,4.8,1.22,10.62-3.39,13.62-2.76,1.79-6.95,2.87-10.22,2.72-4.77-.22-8.59-3.59-9.56-8.23-.58-2.77-.18-6.02,1.22-8.63ZM189.73,112.97c-2.24,3.23-4.54,5.78-8.25,7.23-3.42,1.34-7.28,1.76-10.51-.32-2.88-1.86-4.09-4.65-4.09-7.53-.11-.52-.18-1.06-.21-1.61-.15-1.11-.11-2.26.08-3.42.05-1.9.14-3.77.87-5.59,1.52-3.78,4.9-5.62,8.86-5.76,1.45-.05,2.81.45,3.92,1.29.61.04,1.21.12,1.76.27.74.2,1.41.51,2.01.89,1.82.49,3.53,1.35,5,2.74,3.45,3.28,3.1,8.15.55,11.82Z"/>
          <path class="cls-5" d="M240.54,129.16c-13.1-5.23-26.97-5.4-39.44-1.45-41.8-7.98-84.73,14.47-101.08,55.47-18.55,46.5,4.11,99.23,50.61,117.77,46.5,18.55,99.23-4.11,117.77-50.61,6.11-15.32,7.72-31.3,5.51-46.53,10.87-29.71-3.79-62.86-33.37-74.66ZM190.41,253.74c-.31,1.11-.81,2.01-1.43,2.71-.12.26-.24.52-.39.77-2.17,3.46-6.79,4.71-10.67,4.61-.6-.01-1.2-.09-1.78-.22-.49.1-1,.16-1.5.18-1.21,0-2.34-.31-3.38-.92-.45-.35-.9-.7-1.36-1.05-.83-.84-1.41-1.82-1.72-2.96-.08-.59-.16-1.19-.24-1.78,0-.04,0-.07,0-.11-2.67-3.01-4.18-6.86-1.88-10.78,2.32-3.96,6.79-4.78,10.98-5.2,4.38-.43,8.12.74,10.79,4.39,2.1,2.86,3.57,6.81,2.59,10.34ZM189.93,224.35c-5.84,5.37-15.23,5.1-20.34-.95-.69-.82-1.18-1.74-1.51-2.7-2.27-1.5-3.84-3.94-3.9-6.93-.07-4.03,2.33-7.4,5.78-9.29,5.61-3.07,12.72-5.15,17.91.63,4.79,5.34,8.33,13.46,2.05,19.24ZM214.87,209.49s0-.02.01-.02c.2-.37.42-.73.67-1.07.15-.22.31-.43.48-.64.06-.07.11-.14.17-.21,1.94-2.33,4.78-3.91,7.81-4.4,3-.48,6.03-.14,8.42,1.84,1.9,1.09,3.45,2.8,4.4,5.03,2.02,4.8,1.22,10.62-3.39,13.62-2.76,1.79-6.95,2.87-10.22,2.72-4.77-.22-8.59-3.59-9.56-8.23-.58-2.77-.18-6.02,1.22-8.63ZM236.87,253.97c-2.24,3.23-4.54,5.78-8.25,7.23-3.42,1.34-7.28,1.76-10.51-.32-2.88-1.86-4.09-4.65-4.09-7.53-.11-.52-.18-1.06-.21-1.61-.15-1.11-.11-2.26.08-3.42.05-1.9.14-3.77.87-5.59,1.52-3.78,4.9-5.62,8.86-5.76,1.45-.05,2.81.45,3.92,1.29.61.04,1.21.12,1.76.27.74.2,1.41.51,2.01.89,1.82.49,3.53,1.35,5,2.74,3.45,3.28,3.1,8.15.55,11.82Z"/>
        </g>
      </g>
      <g>
        <g>
          <path d="M245.97,91.08c.43,35.83-22.29,70.5-55.59,83.98-59.33,24.8-125.41-19.92-125.46-83.98-.35-64.62,65.86-108.97,125.48-84.02,33.25,13.59,56.03,48.15,55.57,84.02h0ZM245.84,91.08c.34-35.67-22.82-69.76-55.92-82.86-58.9-24.21-124.03,19.15-124.26,82.86-.24,64.2,65.19,107.3,124.28,82.91,33.05-13.22,56.28-47.19,55.9-82.91h0Z"/>
          <path d="M244.87,91.08c.43,35.83-22.29,70.5-55.59,83.98-59.33,24.8-125.41-19.92-125.46-83.98-.35-64.62,65.86-108.97,125.48-84.02,33.25,13.59,56.03,48.15,55.57,84.02h0ZM244.74,91.08c.34-35.67-22.82-69.76-55.92-82.86-58.9-24.21-124.03,19.15-124.26,82.86-.24,64.2,65.19,107.3,124.28,82.91,33.05-13.22,56.28-47.19,55.9-82.91h0Z"/>
          <path d="M155.05,174.6c-32.92.39-64.76-20.48-77.15-51.07C55.11,69.09,96.25,8.31,155.05,8.29c59.36-.33,100.1,60.5,77.18,115.27-12.49,30.54-44.23,51.47-77.19,51.05h0ZM155.05,174.48c32.77.32,64.08-20.96,76.12-51.37,22.24-54.11-17.59-113.93-76.12-114.15-59.03-.2-98.56,59.83-76.16,114.17,12.14,30.36,43.35,51.7,76.16,51.35h0Z"/>
          <path d="M155.05,173.59c-32.92.39-64.76-20.48-77.15-51.07C55.11,68.08,96.25,7.3,155.05,7.27c59.36-.33,100.1,60.5,77.18,115.27-12.49,30.54-44.23,51.47-77.19,51.05h0ZM155.05,173.47c32.77.32,64.08-20.96,76.12-51.37,22.24-54.11-17.59-113.93-76.12-114.15-59.03-.2-98.56,59.83-76.16,114.17,12.14,30.36,43.35,51.7,76.16,51.35h0Z"/>
        </g>
        <g>
          <g>
            <path d="M139.5,63.06c8.89,7.32,4.75,21.3-6.8,22.35-6.77.73-13.49-4.5-14.08-11.4-1.16-11.49,12.1-18.33,20.88-10.96h0ZM139.45,63.12c-8.34-6.79-21.09.19-20.09,10.82.42,6.54,6.71,12.03,13.32,11.19,10.59-1.05,15.05-15.23,6.77-22.02h0Z"/>
            <path d="M139.41,63.18c8.89,7.32,4.75,21.3-6.8,22.35-6.77.73-13.49-4.5-14.08-11.4-1.16-11.49,12.1-18.33,20.88-10.96h0ZM139.36,63.24c-8.34-6.79-21.09.19-20.09,10.82.42,6.54,6.71,12.03,13.32,11.19,10.59-1.05,15.05-15.23,6.77-22.02h0Z"/>
          </g>
          <g>
            <path d="M191.32,72.84c.05,11.49-13.46,17.23-21.57,8.97-4.87-4.76-5.11-13.28-.17-18.12,8.13-8.21,21.84-2.32,21.74,9.14h0ZM191.25,72.84c-.06-10.76-13.56-16.15-21.13-8.61-4.78,4.49-5.02,12.83-.17,17.4,7.54,7.5,21.33,1.92,21.3-8.78h0Z"/>
            <path d="M191.17,72.84c.05,11.49-13.46,17.23-21.57,8.97-4.87-4.76-5.11-13.28-.17-18.12,8.13-8.21,21.84-2.32,21.74,9.14h0ZM191.09,72.84c-.06-10.76-13.56-16.15-21.13-8.61-4.78,4.49-5.02,12.83-.17,17.4,7.54,7.5,21.33,1.92,21.3-8.78h0Z"/>
          </g>
          <g>
            <path d="M134.64,121.57c-11.1,2.95-20.07-8.68-14.13-18.61,5.78-9.77,20.59-7.97,23.49,3.15,1.92,6.68-2.74,13.94-9.37,15.46h0ZM134.62,121.5c10.39-2.77,12.21-17.2,3-22.62-5.55-3.49-13.68-1.62-16.87,4.23-5.36,9.19,3.52,21.12,13.87,18.39h0Z"/>
            <path d="M134.6,121.43c-11.1,2.95-20.07-8.68-14.13-18.61,5.78-9.77,20.59-7.97,23.49,3.15,1.92,6.68-2.74,13.94-9.37,15.46h0ZM134.58,121.35c10.39-2.77,12.21-17.2,3-22.62-5.55-3.49-13.68-1.62-16.87,4.23-5.36,9.19,3.52,21.12,13.87,18.39h0Z"/>
          </g>
          <g>
            <path d="M187.24,118.63c-8.41,7.82-21.79,1.78-21.22-9.77.2-6.81,6.3-12.76,13.2-12.4,11.54.41,16.52,14.48,8.02,22.18h0ZM187.19,118.57c7.86-7.34,2.68-20.92-7.99-21.37-6.54-.47-12.84,5.01-12.9,11.67-.4,10.63,13.05,16.98,20.89,9.7h0Z"/>
            <path d="M187.14,118.52c-8.41,7.82-21.79,1.78-21.22-9.77.2-6.81,6.3-12.76,13.2-12.4,11.54.41,16.52,14.48,8.02,22.18h0ZM187.09,118.46c7.86-7.34,2.68-20.92-7.99-21.37-6.54-.47-12.84,5.01-12.9,11.67-.4,10.63,13.05,16.98,20.89,9.7h0Z"/>
          </g>
        </g>
      </g>
    </g>
    <g>
      <path d="M2.21,262.28c-.61-.3-.91-.66-.91-1.07,0-.3.2-.81.61-1.52.41-.66.58-1.16.53-1.52l-.23-6.7-.53-20.78-.15-9.21c-.05-5.63-.18-9.16-.38-10.58-.1-.56-.31-1.19-.61-1.9-.36-.96-.53-1.65-.53-2.06,0-1.22,1.93-1.83,5.78-1.83h.38c2.59,0,4.82.89,6.7,2.67,1.47,1.37,2.79,3.52,3.96,6.47.81,2.34,1.42,4.95,1.83,7.84.2,1.52.38,3.86.53,7v2.36c0,3.15-.42,6.56-1.26,10.24s-2.02,7.12-3.54,10.31c-.91,2.03-2.09,3.86-3.54,5.48-1.45,1.62-2.83,2.91-4.15,3.84-1.32.94-2.21,1.41-2.66,1.41-.61,0-1.22-.15-1.83-.46ZM5.18,258.85c1.88-.96,3.55-2.37,5.02-4.23,1.47-1.85,2.64-3.89,3.5-6.13.76-1.88,1.4-4.02,1.9-6.43.51-2.41.86-4.66,1.07-6.74.15-1.83.23-3.58.23-5.25,0-14.82-4.09-22.23-12.26-22.23-1.07,0-1.6.28-1.6.84,0,1.78.1,3.88.3,6.32.2,2.49.31,4.59.31,6.32,0,2.79.2,7.64.61,14.54.35,5.99.53,10.81.53,14.47v8.52h.38Z"/>
      <path d="M30.34,262.7c-.48-.23-.72-.67-.72-1.33v-1.45c-.05-.41-.08-.86-.08-1.37v-.15l.08-11.12-.08-31.44c0-3.25-.05-6.06-.15-8.45,0-.61.13-1.12.38-1.52s.58-.61.99-.61h4.72c.71,0,1.24.05,1.6.15.51.15.76.58.76,1.29,0,.41-.15.74-.46.99-.3.25-.63.41-.99.46h-1.29l-1.22-.07-1.22-.08c-.36,0-.6.07-.72.19-.13.13-.19.37-.19.72,0,2.39.02,4.54.08,6.47v15.99c0,.1.05.15.15.15h.15c1.27-.1,2.64-.15,4.11-.15.81,0,1.22.36,1.22,1.07,0,.51-.09.85-.27,1.03-.18.18-.47.27-.88.27h-4.34c-.2,0-.31.13-.31.38l.15,11.27c.1,3.5.15,7.54.15,12.11v2.82h7.16c.91,0,1.37.33,1.37.99,0,.81-.23,1.29-.69,1.45-.61.2-1.85.31-3.73.31h-3.2c-1.22,0-2.07-.11-2.55-.34Z"/>
      <path d="M59.83,261.82l-.91-3.35c-1.42-4.72-2.46-8.7-3.12-11.95-.41-1.78-.91-4.24-1.52-7.38-.71-3.66-1.37-6.62-1.98-8.91l-.76.46-.99.46.15,29.31v1.14c0,1.01-.46,1.52-1.37,1.52-.41,0-.74-.13-.99-.38-.25-.25-.38-.56-.38-.91v-1.14l.15-15.38.15-7.38c.2-8.88.31-16.44.31-22.69v-9.82c0-.46.46-.69,1.37-.69,1.32,0,2.55.36,3.69,1.07,1.14.71,2.04,1.67,2.7,2.89,1.37,2.49,2.06,5.2,2.06,8.15,0,2.34-.51,4.87-1.52,7.61-.3.76-.68,1.64-1.14,2.63-.46.99-.86,1.66-1.22,2.02,1.07,3.91,2.61,9.92,4.64,18.04l3.58,13.7c.05.15.08.43.08.84,0,.46-.09.85-.27,1.18-.18.33-.44.5-.8.5-1.02,0-1.65-.51-1.9-1.52ZM52.52,227.19c.96-.96,1.65-1.77,2.06-2.43.35-.71.66-1.77.91-3.2.25-1.42.38-2.69.38-3.81,0-2.08-.35-4.21-1.07-6.39-.35-1.27-.89-2.3-1.6-3.09s-1.5-1.18-2.36-1.18h-.15c-.05.05-.13.08-.23.08v21.47c.4,0,1.09-.48,2.06-1.45Z"/>
      <path d="M94.39,261.82l-.91-3.35c-1.42-4.72-2.46-8.7-3.12-11.95-.41-1.78-.91-4.24-1.52-7.38-.71-3.66-1.37-6.62-1.98-8.91l-.76.46-.99.46.15,29.31v1.14c0,1.01-.46,1.52-1.37,1.52-.41,0-.74-.13-.99-.38-.25-.25-.38-.56-.38-.91v-1.14l.15-15.38.15-7.38c.2-8.88.31-16.44.31-22.69v-9.82c0-.46.46-.69,1.37-.69,1.32,0,2.55.36,3.69,1.07,1.14.71,2.04,1.67,2.7,2.89,1.37,2.49,2.06,5.2,2.06,8.15,0,2.34-.51,4.87-1.52,7.61-.3.76-.68,1.64-1.14,2.63-.46.99-.86,1.66-1.22,2.02,1.07,3.91,2.61,9.92,4.64,18.04l3.58,13.7c.05.15.08.43.08.84,0,.46-.09.85-.27,1.18-.18.33-.44.5-.8.5-1.02,0-1.65-.51-1.9-1.52ZM87.08,227.19c.96-.96,1.65-1.77,2.06-2.43.35-.71.66-1.77.91-3.2.25-1.42.38-2.69.38-3.81,0-2.08-.35-4.21-1.07-6.39-.35-1.27-.89-2.3-1.6-3.09s-1.5-1.18-2.36-1.18h-.15c-.05.05-.13.08-.23.08v21.47c.4,0,1.09-.48,2.06-1.45Z"/>
      <path d="M103.91,227.57v-3.04c0-4.26.25-7.97.76-11.11.3-1.98.72-3.6,1.26-4.87.53-1.27,1.26-2.28,2.17-3.04.86-.86,1.98-1.29,3.35-1.29,1.22,0,2.33.24,3.35.72,1.01.48,1.85,1.1,2.51,1.86.56.71,1.07,1.65,1.52,2.82.46,1.17.81,2.29,1.07,3.35l.61,3.58c1.22,8.68,1.83,16.37,1.83,23.06v.23c0,2.54-.05,4.87-.15,7-.1,2.54-.38,5.2-.84,7.99-.2,1.37-.49,2.56-.88,3.58s-.88,2.03-1.49,3.04c-1.07,1.82-2.56,2.74-4.49,2.74-7.05,0-10.58-12.2-10.58-36.62ZM116.85,260.64c.66-.94,1.17-2.25,1.52-3.92.81-3.55,1.32-7.03,1.52-10.43.1-2.74.15-5.41.15-7.99v-.31l-.08-7.61c-.1-2.74-.41-6.29-.91-10.66-.41-3.09-1.25-6.27-2.51-9.52-.51-1.27-1.18-2.26-2.02-2.97-.84-.71-1.74-1.07-2.7-1.07-.86,0-1.62.41-2.28,1.22-.66.81-1.19,1.95-1.6,3.43-.91,3.4-1.42,6.55-1.52,9.44-.15,2.49-.23,5.05-.23,7.69v3.73c0,3.4.33,7.72.99,12.94.41,3.3.91,6.17,1.52,8.6.61,2.44,1.42,4.49,2.44,6.17,1.01,1.78,2.18,2.66,3.5,2.66.81,0,1.55-.47,2.21-1.41Z"/>
      <path d="M133.94,264.14c-.48-.08-1-.24-1.56-.5-.61-.3-1.07-.73-1.37-1.29,0-.61.28-.91.84-.91s1.27.18,2.13.53c.81.41,1.5.61,2.06.61,1.12,0,2.14-.46,3.08-1.37.94-.91,1.66-2.11,2.17-3.58,1.01-2.89,1.52-5.45,1.52-7.69,0-2.49-.36-5-1.07-7.54-.71-2.54-1.65-4.92-2.82-7.16-.25-.56-.68-1.39-1.29-2.51-1.27-2.54-2.23-4.52-2.89-5.93-.66-1.42-1.24-3-1.75-4.72-.71-2.28-1.07-4.75-1.07-7.38,0-1.68.27-3.29.8-4.84.53-1.55,1.38-2.88,2.55-4,1.27-1.17,2.69-1.75,4.26-1.75.61,0,1.34.24,2.21.72.86.48,1.29.95,1.29,1.41,0,.41-.15.61-.46.61s-.71-.13-1.22-.38c-.46-.25-.89-.38-1.29-.38-1.17,0-2.2.43-3.08,1.29-.89.86-1.54,1.93-1.94,3.2-.36,1.07-.53,2.23-.53,3.5,0,1.98.25,4.02.76,6.13.51,2.11,1.19,4.07,2.06,5.9l2.66,5.56.76,1.6c1.07,2.18,1.89,3.99,2.47,5.41.58,1.42,1.08,3.02,1.49,4.8.56,2.39.84,4.67.84,6.85,0,2.94-.76,5.93-2.28,8.98-.76,1.47-1.78,2.67-3.04,3.58-1.27.91-2.66,1.37-4.19,1.37-.91,0-1.61-.04-2.09-.11Z"/>
      <path d="M169.33,262.2c-.28-.25-.42-.56-.42-.91v-9.97c0-.61-1.29-1.17-3.88-1.68-2.59-.5-4.72-.76-6.39-.76-.1,0-.27.38-.5,1.14-.23.76-.39,1.32-.49,1.68-.66,2.64-1.32,5.45-1.98,8.45l-.38,1.67c-.1.41-.36.61-.76.61s-.77-.13-1.1-.38c-.33-.25-.5-.56-.5-.91l.08-.15v-.07l.84-3.81c.61-2.39,1.14-4.72,1.6-7,.51-2.59.89-4.26,1.14-5.02.41-1.68,1.22-5.86,2.44-12.56l.46-2.51c1.32-7.82,2.23-12.74,2.74-14.77.25-1.22.71-3.02,1.37-5.41.25-1.01.61-2.03,1.07-3.04.46-.86.84-1.29,1.14-1.29.81,0,1.4.25,1.75.76.25.46.65,2.97,1.18,7.54s1,9.19,1.41,13.86l.99,12.63c0,2.18.15,5.48.46,9.9.31,4.47.46,7.79.46,9.97v.3c0,.56-.08,1.07-.23,1.52-.2.41-.69.61-1.45.61-.41,0-.75-.12-1.03-.38ZM168.84,247.13c0-3.14-.18-7.45-.53-12.9-.36-5.45-.74-10.27-1.14-14.43-.1-1.78-.31-3.73-.61-5.86l-.3-2.97s-.05-.23-.15-.84l-.15-.91c-.41,1.12-.8,2.67-1.18,4.65-.38,1.98-.77,4.31-1.18,7-1.22,7.56-2.26,13.24-3.12,17.05l-.68,2.59c-.76,2.54-1.14,4.47-1.14,5.79v.46c2.23.71,4.79,1.07,7.69,1.07h.46c.15.05.33.07.53.07,1.01,0,1.52-.25,1.52-.76Z"/>
      <path d="M211.39,263.27c-.05-.3-.66-2.43-1.83-6.39l-2.67-9.29c-2.79-9.64-4.59-15.61-5.41-17.89l-.46-1.29c-.05.1-.14.25-.27.46-.13.2-.34.53-.65.99-.61,1.12-1.12,1.98-1.52,2.59l-1.07,1.75v27.1c0,.86-.08,1.46-.23,1.79-.15.33-.48.5-.99.5s-.85-.18-1.03-.53c-.18-.36-.27-.99-.27-1.9v-22.99c0-2.99.08-7.86.23-14.61l.15-14.62c0-.96.05-1.85.15-2.66.15-.61.43-.91.84-.91.76,0,1.22.18,1.37.53.2.36.31,1.27.31,2.74l-.15,12.63-.15,9.21h.08c.96-2.13,2.33-5.33,4.11-9.59l2.82-7.08c2.84-7.05,4.64-10.58,5.41-10.58.35,0,.66.1.91.3.25.2.38.48.38.84-.15.96-.56,1.98-1.22,3.04l-.76,1.37c-.86,2.03-2.13,5.08-3.81,9.13-2.03,4.93-3.12,7.51-3.27,7.77-.05.36-.03.66.08.91,1.02,2.59,2.16,5.79,3.43,9.59,1.27,3.81,2.31,7.11,3.12,9.9.86,3.04,1.74,6.14,2.63,9.29s1.51,5.4,1.87,6.77c.1.3.15.48.15.53,0,.35-.14.63-.42.84-.28.2-.6.3-.95.3-.46,0-.76-.18-.91-.53Z"/>
      <path d="M233.92,262.89c-.3-.36-.51-.76-.61-1.22l-.23-1.45c-.15-.61-.23-.99-.23-1.14-5.68-20.35-8.8-31.77-9.36-34.26-.46-1.83-1.5-6.9-3.12-15.23-.05.31-.08,1.35-.08,3.12v27.56l.15,10.89.15,10.81-.46.61h-1.75l-.23-.61c.1-.51.15-1.52.15-3.04l-.08-13.25-.15-13.24v-17.2c-.05-2.13-.08-4.52-.08-7.16,0-.3-.03-.58-.08-.84v-.76c0-.61.16-1.03.5-1.26.33-.23.85-.34,1.56-.34.3,0,.65.15,1.03.46s.62.63.72.99l1.6,7.46c.71,3.55,1.32,6.24,1.83,8.07,1.07,4.21,2.89,11.11,5.48,20.71,1.47,6.29,2.79,11.11,3.96,14.46.3-.76.46-1.98.46-3.65,0-4.92.05-9.34.15-13.25l.15-13.24c0-2.18.02-4.16.08-5.94v-5.86l-.08-10.73c.25-.71.79-1.07,1.6-1.07.41,0,.61.73.61,2.21,0,.66-.03,1.19-.08,1.6,0,.41-.01.7-.04.88-.03.18-.04.29-.04.34v4.87c0,6.75-.03,12.76-.08,18.04-.05,5.33-.08,11.32-.08,17.97,0,1.27-.08,3.27-.23,6.01l-.15,6.02c0,1.47-.66,2.21-1.98,2.21-.35,0-.68-.18-.99-.53Z"/>
      <path d="M247.78,227.57v-3.04c0-4.26.25-7.97.76-11.11.3-1.98.72-3.6,1.26-4.87.53-1.27,1.26-2.28,2.17-3.04.86-.86,1.98-1.29,3.35-1.29,1.22,0,2.33.24,3.35.72,1.01.48,1.85,1.1,2.51,1.86.56.71,1.07,1.65,1.52,2.82.46,1.17.81,2.29,1.07,3.35l.61,3.58c1.22,8.68,1.83,16.37,1.83,23.06v.23c0,2.54-.05,4.87-.15,7-.1,2.54-.38,5.2-.84,7.99-.2,1.37-.49,2.56-.88,3.58s-.88,2.03-1.49,3.04c-1.07,1.82-2.56,2.74-4.49,2.74-7.05,0-10.58-12.2-10.58-36.62ZM260.72,260.64c.66-.94,1.17-2.25,1.52-3.92.81-3.55,1.32-7.03,1.52-10.43.1-2.74.15-5.41.15-7.99v-.31l-.08-7.61c-.1-2.74-.41-6.29-.91-10.66-.41-3.09-1.25-6.27-2.51-9.52-.51-1.27-1.18-2.26-2.02-2.97-.84-.71-1.74-1.07-2.7-1.07-.86,0-1.62.41-2.28,1.22-.66.81-1.19,1.95-1.6,3.43-.91,3.4-1.42,6.55-1.52,9.44-.15,2.49-.23,5.05-.23,7.69v3.73c0,3.4.33,7.72.99,12.94.41,3.3.91,6.17,1.52,8.6.61,2.44,1.42,4.49,2.44,6.17,1.01,1.78,2.18,2.66,3.5,2.66.81,0,1.55-.47,2.21-1.41Z"/>
      <path d="M276.93,260.38c0-2.54-.03-4.8-.08-6.78l-.15-6.85v-6.16c-.05-1.83-.08-3.88-.08-6.17,0-6.8-.13-13.09-.38-18.88l-.08-2.74c-.15-3-.23-5.43-.23-7.31l.23-.3c.05-.1.15-.23.31-.38.05-.15.18-.25.38-.3.1-.05.28-.08.53-.08,1.78,0,3.39.41,4.84,1.22,1.45.81,2.63,1.93,3.54,3.35,1.78,2.79,2.67,5.96,2.67,9.52,0,2.28-.37,4.62-1.1,7-.74,2.39-1.84,4.54-3.31,6.47-1.52,2.08-3.22,3.3-5.1,3.65l.15,8.45.15,4.11c.2,4.87.31,9.04.31,12.49,0,.81-.11,1.41-.34,1.79-.23.38-.67.57-1.33.57-.61,0-.91-.89-.91-2.66ZM280.28,232.21c.1-.05.28-.25.53-.61l.53-.53c3.3-3.3,4.95-7.43,4.95-12.41,0-2.84-.56-5.48-1.67-7.92-.61-1.27-1.5-2.27-2.66-3.01-1.17-.73-2.54-1.1-4.11-1.1,0,2.89.15,7.23.46,13.02.31,5.79.46,10.13.46,13.02l.15.15c.46-.05.91-.25,1.37-.61Z"/>
      <path d="M299.39,260.76v-5.63l-.23-4.64c-.46-8.32-.68-14.44-.68-18.35,0-2.13-.28-8.78-.84-19.94-.1-2.43-.18-4-.23-4.68-.05-.69-.08-1.05-.08-1.11v-.53c0-.35.25-.58.76-.68.3-.1,1.19-.15,2.66-.15h3.81c.41,0,.71.16.91.5.2.33.3.75.3,1.25s-.46.76-1.37.76l-1.75-.08h-1.98c-.41,0-.66.08-.76.23-.1.15-.15.56-.15,1.22,0,1.02.18,4.72.53,11.11.35,6.4.53,10.13.53,11.19.61,0,1.47-.15,2.59-.46,1.17-.3,2.03-.46,2.59-.46.3,0,.57.18.8.53.23.36.34.68.34.99,0,.56-.41.93-1.22,1.1-.81.18-1.98.32-3.5.42-1.07.15-1.6.46-1.6.91,0,2.28.25,6.55.76,12.79.46,5.68.68,9.97.68,12.86l-.23.38c.15.36.23.68.23.99,0,.97-.56,1.45-1.67,1.45-.81,0-1.22-.66-1.22-1.98Z"/>
    </g>
  </g>
</svg>